<svg id="Layer_1" data-name="Layer 1" xmlns="http://www.w3.org/2000/svg" viewBox="0 0 73.05 69.2"><defs><style>.cls-green-1{fill:#83cdb9;}.cls-green-2{fill:#028e4b;}</style></defs><path class="cls-green-1" d="M12.06,4.9C26.64-2,42.62,6.48,50.12,10.29s27.16,14.3,19.5,36.17S38.37,71.23,28.46,68.21,14.9,51.09,18,42.56,9.13,33.08,3.61,27-2.51,11.79,12.06,4.9Z" transform="translate(0 -0.01)"/><path class="cls-green-2" d="M28.64,31.81a8.47,8.47,0,0,0,7.51-2.26,1.37,1.37,0,0,0,.3-.44c.65-1.37,1.26-2.76,2-4.11s1.5-2.69,2.3-4c.47-.72,1-1.42,1.51-2.1s1.12-1.32,1.7-2a9.22,9.22,0,0,1-.12-13l.34-.33A9.22,9.22,0,0,1,56.86,16.89c1.14,0,2.23.06,3.32,0a1.6,1.6,0,0,0,1.36-1.21c.35-1,.74-1.95,1.07-2.94a2.27,2.27,0,0,1,1.25-1.39.68.68,0,0,0,.41-.74q0-4.43,0-8.87a3.65,3.65,0,0,1,0-.66,1.11,1.11,0,0,1,1.16-1,1,1,0,0,1,.41.1C68.06,1,70.24,2,72.41,3A1,1,0,0,1,73,4a1.15,1.15,0,0,1-.79,1.09c-1.7.74-3.38,1.49-5.09,2.22a.75.75,0,0,0-.55.84c0,.77,0,1.54,0,2.31A.48.48,0,0,0,67,11a3.25,3.25,0,0,1,2,2.54,2,2,0,0,1-.13,1c-.73,2-1.48,4-2.22,6a4.81,4.81,0,0,1-4.54,3.24c-2,0-4,0-6,0h-.52v3.63c1.16,0,2.32,0,3.46,0a4,4,0,0,1,4,4.06V38.9a3.74,3.74,0,0,1-1,2.84h8a5,5,0,0,1,.55,0,1.19,1.19,0,0,1,1,1.17,1.16,1.16,0,0,1-1,1.14,5,5,0,0,1-.77,0h-13c-.5,0-.66.11-.65.64,0,1.91,0,3.82,0,5.73v.64H42v6.66H27.38V65l-.54,0H11.12c-.75,0-1.19-.31-1.3-.91a1.16,1.16,0,0,1,.86-1.39,1,1,0,0,1,.39,0c1.48,0,2.95,0,4.42,0H16c0-1.21-.08-2.38-.08-3.54,0-3.83,0-7.65,0-11.47V47.1h-.07c-.25.68-.49,1.36-.75,2a2.6,2.6,0,0,1-2.53,2A3.62,3.62,0,0,1,9.5,49a6.05,6.05,0,0,1-.3-3,28.64,28.64,0,0,1,3.36-10.17,12.26,12.26,0,0,1,3.25-3.7,9.24,9.24,0,1,1,13.06-.53l-.22.23ZM45.38,15a6.86,6.86,0,0,0,3.18,2,1.18,1.18,0,1,1-.42,2.32,1.31,1.31,0,0,1-.28-.09,5.69,5.69,0,0,1-1.13-.42.79.79,0,0,0-1,.1,10.58,10.58,0,0,0-2.9,3.2c-1,1.78-2.11,3.57-3,5.41a26.13,26.13,0,0,0-1.42,3.62c-.21.64.3,1.09,1,.9a1.42,1.42,0,0,0,.73-.52c.73-1.14,1.42-2.31,2.13-3.47s1.4-2.37,2.14-3.53a1.07,1.07,0,0,1,1.42-.5l.19.12a1.3,1.3,0,0,1,.63,1.25q0,10.23,0,20.46c0,.22,0,.44,0,.66a1.33,1.33,0,0,0,2.6.27,3.29,3.29,0,0,0,.06-.77q0-6.19,0-12.41c0-.93.37-1.42,1.22-1.43,1.87,0,3.75,0,5.62,0a2.21,2.21,0,0,1,2.19,2.23.91.91,0,0,1,0,.17c0,1.51,0,3,0,4.52a1.27,1.27,0,0,0,1.14,1.39h.09a1.23,1.23,0,0,0,1.35-1.1.88.88,0,0,0,0-.28V31.78a1.8,1.8,0,0,0-1.51-2.07,1.93,1.93,0,0,0-.48,0c-1.37-.05-2.75-.08-4.13-.1-1,0-1.41-.43-1.42-1.4V22.85c0-1,.42-1.42,1.45-1.42,1.47,0,2.94,0,4.42,0,1.1,0,2.2,0,3.3-.09a2.27,2.27,0,0,0,2-1.6c.68-1.85,1.37-3.71,2.08-5.56a.67.67,0,0,0-.29-.9l-.08,0a1,1,0,0,0-1.4.51l0,0c-.36.94-.7,1.89-1.05,2.83a3.94,3.94,0,0,1-3.81,2.64h-6c-1,0-1.37-.41-1.4-1.36a1.48,1.48,0,0,1,.93-1.42,7.77,7.77,0,0,0,2.81-2.53,6.42,6.42,0,0,0,.95-4.62A6.85,6.85,0,0,0,45.57,5.45a6.61,6.61,0,0,0-1.72,7A12.61,12.61,0,0,0,44.54,14c.21-1.28,1-1.7,2.09-1.07a2.34,2.34,0,0,0,2.64-.08,1.18,1.18,0,0,1,1.64.26l0,0a1.22,1.22,0,0,1-.38,1.67h0a4.3,4.3,0,0,1-3.35.76C46.58,15.38,46,15.16,45.38,15ZM12.66,48.82c.17-.41.35-.79.48-1.19.67-2.09,1.3-4.2,2-6.27a7.38,7.38,0,0,1,1.1-2.12,1.14,1.14,0,0,1,1.61-.05,1.12,1.12,0,0,1,.3.47,2.42,2.42,0,0,1,.06.76V61.21a1.41,1.41,0,0,0,1.35,1.46h0a1.37,1.37,0,0,0,1.37-1.37v-.06c0-2.34,0-4.67,0-7,0-2,0-3.94,0-5.9a1.1,1.1,0,0,1,1-1.23h.23c1.87,0,3.75,0,5.62,0a2.12,2.12,0,0,1,2.17,2.08,2.26,2.26,0,0,1,0,.26v3.69a1.32,1.32,0,0,0,1.23,1.25,1.23,1.23,0,0,0,1.33-1.1V46.38a1.42,1.42,0,0,0-1-1.45,4,4,0,0,0-1.23-.23c-1.29,0-2.58,0-3.86,0-1,0-1.45-.44-1.45-1.43v-5.4c0-1,.4-1.43,1.43-1.43h6.29a7.39,7.39,0,0,0,5-2.25l-1.57-1.66c-.22.13-.51.33-.81.49a7.58,7.58,0,0,1-3.5,1.22q-3.09.06-6.18,0a1.44,1.44,0,0,1-.95-.52,1.61,1.61,0,0,1,.5-2.22l.07-.05a6.87,6.87,0,1,0-9.78-4.56,6.74,6.74,0,0,0,4.76,5c.84.28,1.21.84,1,1.55s-.87.95-1.72.67c-.4-.12-.78-.32-1.18-.43a.77.77,0,0,0-.63,0,18.08,18.08,0,0,0-1.86,1.63A13.64,13.64,0,0,0,13,40.5a20.72,20.72,0,0,0-1.52,6.72c0,.92.21,1.21,1.2,1.6Zm14.63-6.48H28c1,0,2,0,3,.06a4,4,0,0,1,3.83,4.12c0,2.2,0,4.41,0,6.62a3.6,3.6,0,0,1-.55,1.92c-.06.11-.11.22-.16.32H39.6v-6.6h5.55a4.72,4.72,0,0,1-1-3.44q0-7.64,0-15.27V29.4c-.12.07-.16.08-.17.1l-.57.94A20,20,0,0,1,38,36.87a8.66,8.66,0,0,1-5.61,1.89c-1.5-.07-3,0-4.52,0l-.59,0Zm29.63-.62a4,4,0,0,1-1.09-3.14c.05-1.1,0-2.2,0-3.3v-.81H51.58v2.1c0,2.61,0,5.22,0,7.83,0,1.5.24,3.06-.93,4.35H54v-7ZM25,55.4h3.31a3.63,3.63,0,0,1-.77-2.71V49.47h-4.3c0,1.36,0,2.68,0,4,0,3.06.15,6.13-.12,9.19H25ZM66.65,3V5L69,4Z" transform="translate(0 -0.01)"/><path class="cls-green-2" d="M45.7,11.21A1.17,1.17,0,0,1,44.56,10a1.15,1.15,0,0,1,2.3,0h0A1.16,1.16,0,0,1,45.7,11.21Z" transform="translate(0 -0.01)"/><path class="cls-green-2" d="M51.3,10.06a1.14,1.14,0,0,1-1.13,1.15h-.05a1.16,1.16,0,1,1,.05-2.31A1.14,1.14,0,0,1,51.3,10Z" transform="translate(0 -0.01)"/><path class="cls-green-2" d="M24.51,28.17a4.4,4.4,0,0,1-2.25-.66,1.1,1.1,0,0,1-.52-1.46.43.43,0,0,1,0-.07,1.08,1.08,0,0,1,1.49-.31l.09.07a2,2,0,0,0,2.32,0,1,1,0,0,1,1.2,0,.88.88,0,0,1,.44,1,1.47,1.47,0,0,1-.44.71A4,4,0,0,1,24.51,28.17Z" transform="translate(0 -0.01)"/><path class="cls-green-2" d="M22.4,24.13A1.15,1.15,0,1,1,23.55,23,1.15,1.15,0,0,1,22.4,24.13Z" transform="translate(0 -0.01)"/><path class="cls-green-2" d="M26.81,24.12A1.13,1.13,0,0,1,25.7,23,1.14,1.14,0,1,1,28,23,1.13,1.13,0,0,1,26.81,24.12Z" transform="translate(0 -0.01)"/></svg>