<?xml version="1.0" encoding="utf-8"?>
<!-- Generator: Adobe Illustrator 24.2.1, SVG Export Plug-In . SVG Version: 6.00 Build 0)  -->
<svg version="1.1" id="Layer_1" xmlns="http://www.w3.org/2000/svg" xmlns:xlink="http://www.w3.org/1999/xlink" x="0px" y="0px"
	 viewBox="0 0 92.3 60.1" style="enable-background:new 0 0 92.3 60.1;" xml:space="preserve">
<style type="text/css">
	.st0{fill:#FBD269;}
	.st1{fill:#FFFFFF;}
</style>
<path id="Icon_awesome-check" class="st0" d="M48.5,59.2L27,37.7c-1.3-1.3-1.3-3.4,0-4.7c0,0,0,0,0,0l4.7-4.7c1.3-1.3,3.4-1.3,4.7,0
	c0,0,0,0,0,0l14.5,14.5l31.1-31.1c1.3-1.3,3.4-1.3,4.7,0c0,0,0,0,0,0l4.7,4.7c1.3,1.3,1.3,3.4,0,4.7c0,0,0,0,0,0L53.2,59.2
	C51.9,60.5,49.8,60.5,48.5,59.2z"/>
<path class="st1" d="M1,39c-0.3,0-0.5-0.2-0.5-0.5c0-0.3,0.2-0.5,0.4-0.5l14-1.4c0.3,0,0.5,0.2,0.5,0.4s-0.2,0.5-0.4,0.5L1,39
	C1,39,1,39,1,39z"/>
<path class="st1" d="M23,24.1c-0.3,0-0.7-0.2-0.9-0.5L9.3,3C9,2.5,9.2,1.9,9.6,1.6c0.5-0.3,1.1-0.1,1.4,0.3l12.8,20.7
	c0.3,0.5,0.1,1.1-0.3,1.4C23.3,24.1,23.1,24.1,23,24.1z"/>
<path class="st1" d="M17,28.9c-0.1,0-0.2,0-0.3-0.1l-16-7.5c-0.4-0.2-0.5-0.6-0.4-1c0.2-0.4,0.6-0.5,1-0.4l16,7.5
	c0.4,0.2,0.5,0.6,0.4,1C17.5,28.7,17.2,28.9,17,28.9z"/>
<path class="st1" d="M44,21.6c-0.1,0-0.2,0-0.3-0.1c-0.2-0.2-0.2-0.5-0.1-0.7l7.6-9.1c0.2-0.2,0.5-0.2,0.7-0.1
	c0.2,0.2,0.2,0.5,0.1,0.7l-7.6,9.1C44.2,21.6,44.1,21.6,44,21.6z"/>
<path class="st1" d="M34,21.9C33.9,21.9,33.9,21.9,34,21.9c-0.4,0-0.8-0.4-0.8-0.8l0.4-20.4c0-0.4,0.3-0.7,0.8-0.7
	c0.4,0,0.7,0.4,0.7,0.8l-0.4,20.4C34.7,21.5,34.4,21.9,34,21.9z"/>
</svg>
