<svg xmlns="http://www.w3.org/2000/svg" width="64.205" height="58" viewBox="0 0 64.205 58"><defs><style>.a{fill:#006233;}</style></defs><g transform="translate(-239.41 -116.982)"><path class="a" d="M259.718,126.327c0-1.567-.008-3.047,0-4.526a4.573,4.573,0,0,1,4.659-4.8q7.088-.028,14.177,0a4.484,4.484,0,0,1,4.531,3.495,7.01,7.01,0,0,1,.13,1.58c.017,1.4.006,2.8.006,4.26h.672q5.352,0,10.7,0a8.962,8.962,0,0,1,8.93,7.8,11.405,11.405,0,0,1,.075,1.534q.007,14.975.012,29.949a8.936,8.936,0,0,1-3.7,7.67,8.162,8.162,0,0,1-4.812,1.666c-2.467.028-4.935.02-7.4.02q-19.5,0-39,.011a9.029,9.029,0,0,1-5.835-1.867,8.42,8.42,0,0,1-3.423-6.711c-.056-6.623-.028-13.247-.029-19.871,0-3.929-.026-7.858.025-11.786a8.865,8.865,0,0,1,7.365-8.3,13.163,13.163,0,0,1,1.754-.118c3.492-.011,6.984-.005,10.476-.005Zm18.9,22.819c0,.567.014,1.095,0,1.622a3.587,3.587,0,0,1-3.61,3.565q-3.614.041-7.229,0a3.532,3.532,0,0,1-3.532-3.14c-.089-.669-.09-1.349-.133-2.054a104.283,104.283,0,0,1-21.238-3.439c-.012.172-.029.3-.029.431q0,9.962.008,19.925a5.075,5.075,0,0,0,.194,1.342,5.449,5.449,0,0,0,5.606,4.084q22.8.008,45.6,0a6.836,6.836,0,0,0,1.525-.134,5.4,5.4,0,0,0,4.338-5.45q.017-9.877,0-19.754c0-.132-.012-.264-.021-.451A105.324,105.324,0,0,1,278.621,149.147Zm.2-3.488c.262,0,.45.018.634,0,2.974-.326,5.954-.613,8.921-1a74.1,74.1,0,0,0,11.37-2.431.475.475,0,0,0,.407-.551c-.016-2.239.051-4.481-.049-6.716a5.756,5.756,0,0,0-.715-2.469,5.19,5.19,0,0,0-4.788-2.744q-23.083-.019-46.167-.007c-.133,0-.266,0-.4.007a5.278,5.278,0,0,0-5.056,4.746c-.108,2.5-.021,5.007-.017,7.512,0,.033.033.067.06.117a95.959,95.959,0,0,0,21.239,3.573c0-.612-.016-1.141,0-1.67a3.461,3.461,0,0,1,3.2-3.338c2.6-.085,5.2-.116,7.794-.036a3.487,3.487,0,0,1,3.555,3.364C278.863,144.542,278.826,145.075,278.826,145.658Zm-15.64-19.369h16.577c0-1.477,0-2.916,0-4.355,0-1.181-.337-1.516-1.525-1.516q-3.843,0-7.686,0c-1.993,0-3.986,0-5.978,0-.911,0-1.361.347-1.378,1.149C263.162,123.123,263.186,124.678,263.186,126.29ZM267.8,144v6.722a1.718,1.718,0,0,0,.275.043c2.258.048,4.516.085,6.774.145.446.012.483-.21.481-.562-.01-1.9,0-3.8-.007-5.694a4.368,4.368,0,0,0-.046-.446Z"/></g></svg>