<svg xmlns="http://www.w3.org/2000/svg" xmlns:xlink="http://www.w3.org/1999/xlink" width="122.509" height="86.088" viewBox="0 0 122.509 86.088">
  <defs>
    <style>
      .cls-1 {
        fill: #fbd269;
      }

      .cls-2, .cls-3, .cls-4 {
        fill: none;
        stroke: #fff;
        stroke-linecap: round;
      }

      .cls-2 {
        stroke-width: 2px;
      }

      .cls-3 {
        stroke-width: 4px;
      }

      .cls-4 {
        stroke-width: 3px;
      }

      .cls-5 {
        filter: url(#Icon_awesome-check);
      }
    </style>
    <filter id="Icon_awesome-check" x="23.596" y="7.75" width="98.914" height="78.338" filterUnits="userSpaceOnUse">
      <feOffset dy="3" input="SourceAlpha"/>
      <feGaussianBlur stdDeviation="3" result="blur"/>
      <feFlood flood-opacity="0.161"/>
      <feComposite operator="in" in2="blur"/>
      <feComposite in="SourceGraphic"/>
    </filter>
  </defs>
  <g id="Group_1074" data-name="Group 1074" transform="translate(-945.97 -1132.488)">
    <g class="cls-5" transform="matrix(1, 0, 0, 1, 945.97, 1132.49)">
      <path id="Icon_awesome-check-2" data-name="Icon awesome-check" class="cls-1" d="M27.482,63.73l-26.3-26.3a4.046,4.046,0,0,1,0-5.721l5.721-5.721a4.046,4.046,0,0,1,5.721,0L30.343,43.705,68.286,5.762a4.046,4.046,0,0,1,5.721,0l5.721,5.721a4.046,4.046,0,0,1,0,5.721L33.2,63.731A4.046,4.046,0,0,1,27.482,63.73Z" transform="translate(32.6 9.17)"/>
    </g>
    <path id="Path_66" data-name="Path 66" class="cls-2" d="M3877.9,1756.482l-17.051,1.705" transform="translate(-2912.889 -578.047)"/>
    <path id="Path_67" data-name="Path 67" class="cls-3" d="M3876.479,1781.742l-15.626-25.26" transform="translate(-2901.688 -620.413)"/>
    <path id="Path_70" data-name="Path 70" class="cls-4" d="M3880.348,1765.619l-19.494-9.136" transform="translate(-2912.889 -598.18)"/>
    <path id="Path_68" data-name="Path 68" class="cls-2" d="M3860.853,1767.6l9.233-11.12" transform="translate(-2860.402 -608.717)"/>
    <path id="Path_69" data-name="Path 69" class="cls-4" d="M3860.853,1781.349l.516-24.866" transform="translate(-2872.621 -622.464)"/>
  </g>
</svg>
