<svg xmlns="http://www.w3.org/2000/svg" width="89.363" height="60.832" viewBox="0 0 89.363 60.832"><defs><style>.a{fill:#006233;}</style></defs><g transform="translate(0)"><path class="a" d="M280.788,123.755c.439.11.85.176,1.237.314q20.688,7.388,41.371,14.792c2.077.744,2.747,2.876,1.328,4.308a3.832,3.832,0,0,1-1.426.793q-15.919,5.68-31.849,11.328c-3.156,1.121-6.319,2.226-9.468,3.368a3.141,3.141,0,0,1-2.253,0q-20.737-7.376-41.493-14.7c-2.04-.718-2.52-2.492-1.821-3.742a3.194,3.194,0,0,1,1.9-1.383l19.314-6.916q10.908-3.907,21.817-7.81C279.879,123.953,280.342,123.871,280.788,123.755Z" transform="translate(-236.113 -123.755)"/><path class="a" d="M340.357,214.259c.016.337.035.556.035.775q0,9.777.012,19.553a1.242,1.242,0,0,1-.6,1.157,50.478,50.478,0,0,1-53.424,2.925c-1.7-.923-3.292-2.048-4.912-3.115a1.013,1.013,0,0,1-.389-.728c-.021-6.794-.017-13.588-.017-20.51.34.113.614.2.884.293,8.5,3.032,17,6.048,25.488,9.112a9.026,9.026,0,0,0,6.4,0c8.51-3.079,17.039-6.106,25.562-9.151C339.676,214.467,339.964,214.385,340.357,214.259Z" transform="translate(-266.096 -184.124)"/><path class="a" d="M477.034,203.146c0,3.234.012,6.367-.009,9.5a2.208,2.208,0,0,0,.767,1.927,4.187,4.187,0,0,1,.529,5.268,4.363,4.363,0,0,1-4.994,1.854,4.3,4.3,0,0,1-2.978-4.32,4.856,4.856,0,0,1,1.134-2.792,2.252,2.252,0,0,0,.473-1.241c.043-2.552.039-5.1.008-7.657a.872.872,0,0,1,.7-1.01C474.107,204.21,475.527,203.678,477.034,203.146Z" transform="translate(-392.353 -176.712)"/></g></svg>
