<svg xmlns="http://www.w3.org/2000/svg" width="33.693" height="54.764" viewBox="0 0 33.693 54.764">
  <g id="Group_815" data-name="Group 815" transform="translate(-712 -426)">
    <path id="Path_157" data-name="Path 157" d="M195.789,351.3H180.716c-1.219,0-1.757-.53-1.758-1.738,0-2.286-.043-4.573.009-6.858a10.291,10.291,0,0,1,6.06-9.641,10.149,10.149,0,0,1,4.566-.966c4.133,0,8.266-.033,12.4.009a10.44,10.44,0,0,1,10.641,10.624c0,2.286,0,4.572,0,6.858,0,1.2-.526,1.712-1.721,1.712Z" transform="translate(533.06 129.461)" fill="#006233"/>
    <path id="Path_158" data-name="Path 158" d="M215.165,163.921c.127.249.333.63.519,1.02.2.417.056.66-.407.671q-.923.021-1.847,0c-.427-.01-.575-.255-.4-.649s.39-.777.587-1.164l-.153.019a4.034,4.034,0,0,1-.237-.818c-.039-.5.01-1.005-.018-1.506-.025-.434.082-.733.563-.764v-4.493c-.938.272-1.838.522-2.727.809-.1.033-.189.273-.191.418-.015,1.264-.007,2.528-.009,3.793a2.19,2.19,0,0,1-1.83,2.489c-1.723.491-3.441,1.027-5.194,1.38a18.314,18.314,0,0,1-8.828-.536c-.993-.289-1.98-.6-2.966-.915a2.01,2.01,0,0,1-1.566-2.122c-.009-1.329-.012-2.658,0-3.987a.457.457,0,0,0-.4-.529c-1.471-.429-2.933-.891-4.4-1.336-.446-.135-.8-.342-.852-.867-.05-.556.19-.888.825-1.08q2.251-.68,4.508-1.345c2.694-.8,5.392-1.585,8.084-2.391a7.787,7.787,0,0,1,4.584,0q6.127,1.841,12.261,3.659c.124.037.249.072.37.118a.949.949,0,0,1,.695.949.876.876,0,0,1-.691.894c-.442.1-.534.33-.525.749.027,1.312.013,2.626.008,3.938,0,.238,0,.419.3.505.125.036.256.292.264.453a17.315,17.315,0,0,1,0,1.895A2.653,2.653,0,0,1,215.165,163.921Z" transform="translate(528.334 276.33)" fill="#006233"/>
    <path id="Path_159" data-name="Path 159" d="M229.77,236.586a7.623,7.623,0,0,1,1.091,2.915,10.878,10.878,0,0,1-6.3,12.039,10.366,10.366,0,0,1-7.944.391,10.59,10.59,0,0,1-7.172-7.9,10.438,10.438,0,0,1,.607-6.886c.291-.654.289-.628.96-.449a60.4,60.4,0,0,0,6.054,1.525,26.572,26.572,0,0,0,5.226.139C224.865,238.25,227.275,237.321,229.77,236.586Z" transform="translate(508.762 206.352)" fill="#006233"/>
  </g>
</svg>
